static_grf.mot
version=1
nRows=20
nColumns 19
inDegrees=yes
endheader
time	1_ground_force_vx	1_ground_force_vy	1_ground_force_vz	1_ground_force_px	1_ground_force_py	1_ground_force_pz	1_ground_torque_x	1_ground_torque_y	1_ground_torque_z	2_ground_force_vx	2_ground_force_vy	2_ground_force_vz	2_ground_force_px	2_ground_force_py	2_ground_force_pz	2_ground_torque_x	2_ground_torque_y	2_ground_torque_z
            0.980000	            0.165008	          313.573315	          -19.933644	           -0.272503	            0.006133	           -0.386109	            0.001138	            2.163373	           -0.137524	           -1.194485	          307.453066	           21.933406	           -0.267079	            0.005543	           -0.704334	            0.007398	           -1.904080	           -0.135835
            0.980500	            0.119231	          313.212775	          -19.935076	           -0.272477	            0.006134	           -0.386321	            0.000853	            2.240071	           -0.142574	           -1.379041	          306.714259	           22.353211	           -0.266792	            0.005543	           -0.703959	            0.008405	           -1.869441	           -0.136244
            0.981000	            0.028213	          312.670947	          -19.707888	           -0.272580	            0.006134	           -0.386279	            0.000195	            2.156480	           -0.135925	           -1.288124	          307.452226	           22.074231	           -0.266767	            0.005544	           -0.704210	            0.008038	           -1.918635	           -0.137753
            0.981500	           -0.110326	          313.213321	          -20.072075	           -0.272533	            0.006134	           -0.386345	           -0.000745	            2.114816	           -0.135527	           -1.287418	          307.267750	           22.167430	           -0.266664	            0.005543	           -0.703827	            0.008004	           -1.910195	           -0.137809
            0.982000	            0.164876	          314.294378	          -19.930552	           -0.272052	            0.006131	           -0.385630	            0.001139	            2.172163	           -0.137745	           -1.237162	          306.346486	           22.351837	           -0.266763	            0.005543	           -0.703929	            0.007697	           -1.905952	           -0.139063
            0.982500	            0.073420	          313.032470	          -19.935736	           -0.272409	            0.006134	           -0.386278	            0.000500	            2.130886	           -0.135707	           -1.050510	          306.531972	           22.164702	           -0.266737	            0.005543	           -0.703888	            0.006688	           -1.951575	           -0.141114
            0.983000	            0.165106	          313.032488	          -19.935963	           -0.272445	            0.006135	           -0.386516	            0.001155	            2.189966	           -0.139471	           -1.146909	          307.268593	           22.073514	           -0.266795	            0.005544	           -0.704258	            0.007020	           -1.880731	           -0.135108
            0.983500	           -0.202257	          313.934562	          -20.114612	           -0.272273	            0.006133	           -0.386052	           -0.001370	            2.126751	           -0.136267	           -1.147553	          307.452566	           22.121099	           -0.266887	            0.005543	           -0.704152	            0.007174	           -1.922082	           -0.138293
            0.984000	           -0.018412	          313.212945	          -19.980591	           -0.273108	            0.006133	           -0.386089	           -0.000128	            2.181748	           -0.139179	           -1.146889	          307.268425	           22.120442	           -0.266781	            0.005543	           -0.704013	            0.007236	           -1.938751	           -0.139572
            0.984500	           -0.201949	          314.114207	          -19.976271	           -0.272430	            0.006134	           -0.386137	           -0.001378	            2.143225	           -0.136300	           -1.282745	          305.978537	           22.209758	           -0.266993	            0.005540	           -0.703465	            0.007964	           -1.899790	           -0.137898
            0.985000	            0.027087	          314.474980	          -20.021150	           -0.272411	            0.006131	           -0.385570	            0.000185	            2.146909	           -0.136684	           -1.190395	          306.347324	           22.164104	           -0.267010	            0.005542	           -0.703929	            0.007461	           -1.920204	           -0.138926
            0.985500	           -0.385758	          313.394092	          -20.208187	           -0.272726	            0.006133	           -0.386054	           -0.002593	            2.106811	           -0.135851	           -1.053812	          307.452569	           22.214915	           -0.266699	            0.005544	           -0.704215	            0.006627	           -1.933484	           -0.139703
            0.986000	           -0.156397	          313.213705	          -20.163673	           -0.272519	            0.006134	           -0.386298	           -0.001096	            2.195315	           -0.141327	           -1.430002	          307.820000	           22.075604	           -0.266675	            0.005546	           -0.704607	            0.008689	           -1.870308	           -0.134131
            0.986500	            0.073097	          312.312194	          -20.122251	           -0.272781	            0.006136	           -0.386786	            0.000515	            2.201580	           -0.141848	           -1.196397	          308.004819	           22.123090	           -0.266767	            0.005545	           -0.704444	            0.007433	           -1.913508	           -0.137442
            0.987000	           -0.156414	          313.934571	          -20.114725	           -0.272204	            0.006134	           -0.386171	           -0.001066	            2.140520	           -0.137150	           -1.377877	          306.347317	           21.976472	           -0.266951	            0.005542	           -0.703742	            0.008662	           -1.925895	           -0.138158
            0.987500	           -0.110407	          313.033221	          -20.118704	           -0.272724	            0.006136	           -0.386666	           -0.000764	            2.166925	           -0.139269	           -1.143524	          306.347326	           22.211013	           -0.266995	            0.005542	           -0.703992	            0.007407	           -1.984291	           -0.143866
            0.988000	            0.027218	          313.753917	          -20.024242	           -0.272548	            0.006133	           -0.386109	            0.000191	            2.205366	           -0.140750	           -1.428009	          307.267578	           22.073633	           -0.266972	            0.005545	           -0.704619	            0.008897	           -1.914335	           -0.137523
            0.988500	           -0.018493	          313.032845	          -20.027220	           -0.272766	            0.006134	           -0.386172	           -0.000130	            2.194770	           -0.140417	           -1.236703	          306.164019	           21.881899	           -0.267228	            0.005541	           -0.703789	            0.007634	           -1.889955	           -0.135077
            0.989000	           -0.202614	          313.394521	          -20.300354	           -0.272626	            0.006134	           -0.386302	           -0.001402	            2.169253	           -0.140515	           -1.148259	          307.637041	           22.027900	           -0.266556	            0.005544	           -0.703925	            0.007277	           -1.949700	           -0.139605
            0.989500	           -0.201655	          313.753283	          -19.886105	           -0.272709	            0.006132	           -0.385856	           -0.001397	            2.173342	           -0.137749	           -1.470891	          306.162671	           22.022783	           -0.267097	            0.005539	           -0.703294	            0.009170	           -1.908799	           -0.137303
